HIERARCHY
ROOT pelvis
{
  OFFSET 0 100 0
  CHANNELS 6 Xposition Yposition Zposition Zrotation Xrotation Yrotation
  JOINT pelvis_right_femur
  {
    OFFSET -10.78128 -3.44521 -0.5502486
    CHANNELS 3 Zrotation Xrotation Yrotation
    JOINT right_femur_tibia
    {
      OFFSET -0.8047443 -44.0398 -0.1307829
      CHANNELS 3 Zrotation Xrotation Yrotation
      JOINT right_tibia_foot
      {
        OFFSET 3.006224 -47.83518 -5
        CHANNELS 3 Zrotation Xrotation Yrotation
        End Site
        {
          OFFSET 0 -5 15
        }
      }
    }
  }
  JOINT pelvis_left_femur
  {
    OFFSET 10.78128 -3.44521 -0.5502486
    CHANNELS 3 Zrotation Xrotation Yrotation
    JOINT left_femur_tibia
    {
      OFFSET 0.8047443 -44.0398 -0.1307829
      CHANNELS 3 Zrotation Xrotation Yrotation
      JOINT left_tibia_foot
      {
        OFFSET -4.370144 -48.10324 -4.275266
        CHANNELS 3 Zrotation Xrotation Yrotation
        End Site
        {
          OFFSET 0 -5 15
        }
      }
    }
  }
  JOINT pelvis_spine1
  {
    OFFSET 0 6.468898 -3.129235
    CHANNELS 3 Zrotation Xrotation Yrotation
    JOINT spine1
    {
      OFFSET 0 23.15396 4.99043
      CHANNELS 3 Zrotation Xrotation Yrotation
      JOINT spine2
      {
        OFFSET 0 20.79997 -5.064912
        CHANNELS 3 Zrotation Xrotation Yrotation
        JOINT neck
        {
          OFFSET 0 14.38658 9.616178
          CHANNELS 3 Zrotation Xrotation Yrotation
          End Site
          {
            OFFSET 0 20 0
          }
        }
      }
      JOINT right_manubrium
      {
        OFFSET -5.722621 16.35077 3.967754
        CHANNELS 3 Zrotation Xrotation Yrotation
        JOINT right_clavicle
        {
          OFFSET -13.16364 1.694482 -4.693211
          CHANNELS 3 Zrotation Xrotation Yrotation
          JOINT right_humerus
          {
            OFFSET -28.5034 -0.3100689 -2.792744
            CHANNELS 3 Zrotation Xrotation Yrotation
            JOINT right_radius
            {
              OFFSET -25.15693 0.02248979 -1.271978
              CHANNELS 3 Zrotation Xrotation Yrotation
              End Site
              {
                OFFSET -15 0 0
              }
            }
          }
        }
      }
      JOINT left_manubrium
      {
        OFFSET 5.722621 16.35077 3.967754
        CHANNELS 3 Zrotation Xrotation Yrotation
        JOINT left_clavicle
        {
          OFFSET 13.16364 1.694482 -4.693211
          CHANNELS 3 Zrotation Xrotation Yrotation
          JOINT left_humerus
          {
            OFFSET 29.39168 -1.063119 -2.237045
            CHANNELS 3 Zrotation Xrotation Yrotation
            JOINT left_radius
            {
              OFFSET 24.59957 -0.9528479 0.9047498
              CHANNELS 3 Zrotation Xrotation Yrotation
              End Site
              {
                OFFSET 15 -0 -0
              }
            }
          }
        }
      }
    }
  }
}
MOTION
Frames: 17
Frame Time: 0.0416666666667
-447.0946 105.2166 2995.611 -4.308467 -8.651765 -27.73754 6.332934 6.673026 3.130099 -0 10.64771 -0 -6.74675 -7.494077 -4.198581 0.3877384 -15.17614 -3.688554 -0 48.45948 -0 -2.3332 -4.588309 19.05116 0.3453706 2.280497 5.739517 2.107925 12.2681 -7.987871 1.816753 22.83018 0.4178449 -4.206659 -24.41649 7.145021 -7.652069 -28.9342 12.57292 100.2477 31.26327 -16.86462 -0 0 16.36588 -10.3289 1.356653 5.365013 -2.612526 -16.00798 -5.759544 -81.8152 11.19858 27.49183 0 0 -21.39869 14.75328 12.9803 -8.213882
-449.4138 104.7974 3000.592 -4.258284 -8.191503 -28.579 5.995256 10.29379 2.9902 -0 10.04163 -0 -6.156464 -10.6874 -3.547734 1.52713 -19.39492 -3.153169 -0 38.86327 -0 -2.38283 -4.970409 19.45507 0.3786585 1.973568 6.170565 1.844768 12.65653 -7.772068 1.855146 22.40696 -0.196105 -4.524968 -23.79007 6.666449 -7.42645 -30.04007 12.41053 98.61599 30.55253 -14.65348 -0 0 19.07198 -11.15721 2.981995 6.377577 -2.787299 -15.68315 -5.4818 -82.89847 11.04022 30.15893 0 0 -18.31315 14.00418 13.47773 -7.134574
-451.7341 103.9443 3005.791 -4.124797 -7.441261 -29.27976 5.561516 13.36062 2.770556 -0 10.26129 -0 -5.55064 -13.13428 -2.786476 2.379642 -22.23455 -2.829122 -0 29.28922 -0 -2.532057 -5.31865 19.60134 0.3923073 1.60633 6.591483 1.588405 12.96207 -7.544016 1.861937 21.93145 -0.708873 -4.773352 -23.14742 6.218856 -7.161615 -31.08101 12.25922 96.95369 29.8847 -12.46858 -0 0 21.72727 -12.02023 4.637554 7.536338 -2.900308 -15.4406 -5.185717 -83.92166 10.83163 32.68067 0 0 -15.73326 13.1566 13.91068 -5.879888
-454.1098 102.8759 3011.326 -3.872701 -6.578297 -29.86462 4.940819 15.91232 2.556303 -0 11.5552 -0 -4.933345 -14.29596 -1.986354 2.669803 -23.75986 -2.861153 -0 21.35691 -0 -2.680261 -5.575056 19.58759 0.3983588 1.21262 6.979245 1.348573 13.18349 -7.309606 1.837479 21.4485 -1.08391 -4.931897 -22.52066 5.828633 -6.876439 -31.96018 12.14128 95.42648 29.31125 -10.51975 -0 0 24.07484 -12.86183 6.193514 8.765936 -2.960874 -15.30455 -4.92799 -84.81759 10.60597 34.90375 0 0 -13.91503 12.22465 14.22711 -4.455506
-456.5698 101.8362 3017.253 -3.520498 -5.876117 -30.36243 4.074418 17.93943 2.399287 -0 14.27629 -0 -4.400265 -13.74368 -1.287154 2.203274 -24.03915 -3.376847 -0 16.21333 -0 -2.710486 -5.776472 19.53523 0.4078147 0.8459646 7.306928 1.137007 13.32871 -7.080879 1.78944 21.01861 -1.299975 -4.993438 -21.96069 5.524318 -6.599128 -32.58943 12.07376 94.20654 28.89222 -9.018526 -0 0 25.86101 -13.60085 7.496745 9.936271 -2.985804 -15.27498 -4.760792 -85.52652 10.41521 36.67373 0 0 -12.99272 11.26923 14.37837 -2.94565
-459.1153 101.063 3023.55 -3.137928 -5.605879 -30.7655 2.988138 19.31758 2.314179 -0 18.83235 -0 -4.070921 -11.29281 -0.8379192 0.9683559 -23.1408 -4.400616 -0 14.26413 -0 -2.544828 -6.024211 19.54037 0.4251909 0.5624535 7.548901 0.9660746 13.41224 -6.875134 1.731044 20.69906 -1.357575 -4.966592 -21.52241 5.329662 -6.355896 -32.91475 12.06312 93.42193 28.68153 -8.116365 -0 0 26.90812 -14.14523 8.421228 10.89716 -2.995712 -15.33161 -4.716902 -86.00477 10.31629 37.86846 0 0 -12.94994 10.38732 14.33782 -1.495303
-461.7177 100.7581 3030.104 -2.820302 -5.893107 -31.00458 1.827968 19.74558 2.269086 -0 25.43937 -0 -3.99308 -7.155379 -0.7083553 -0.8035959 -21.14341 -5.78319 -0 15.00266 -0 -2.174961 -6.43348 19.61953 0.446892 0.4010278 7.686427 0.8475881 13.44894 -6.71201 1.676404 20.52567 -1.278105 -4.872823 -21.24567 5.25643 -6.162114 -32.92965 12.10509 93.12303 28.70919 -7.863702 -0 0 27.16059 -14.41858 8.90585 11.52726 -3.008618 -15.4455 -4.80124 -86.22751 10.34763 38.42482 0 0 -13.64915 9.684918 14.11724 -0.2688793
-464.3181 101.0448 3036.723 -2.651515 -6.62528 -30.97257 0.8375797 18.77874 2.189933 -0 33.73372 -0 -4.124171 -2.007598 -0.8634772 -2.687091 -18.15138 -7.219596 -0 17.15103 -0 -1.657287 -7.081496 19.69409 0.4645141 0.3740915 7.710475 0.791877 13.44888 -6.609401 1.636129 20.50627 -1.095222 -4.739063 -21.14576 5.302417 -6.021375 -32.66882 12.18921 93.2869 28.97331 -8.216021 -0 0 26.67559 -14.38076 8.955938 11.76645 -3.035449 -15.59052 -4.995079 -86.18633 10.51305 38.34331 0 0 -14.90119 9.247602 13.76564 0.5940866
-466.8371 101.912 3043.175 -2.675199 -7.500643 -30.59404 0.2455253 16.02095 2.001814 -0 42.49075 -0 -4.408897 3.115645 -1.215859 -4.230568 -14.31577 -8.383959 -0 19.16704 -0 -1.089276 -7.990457 19.63981 0.4697402 0.4725761 7.620371 0.8073326 13.41503 -6.580495 1.615683 20.6278 -0.843328 -4.590441 -21.21918 5.456124 -5.932367 -32.18876 12.30371 93.85064 29.44575 -9.075627 -0 0 25.57294 -14.02919 8.613133 11.61377 -3.079409 -15.74802 -5.267776 -85.88421 10.78289 37.66853 0 0 -16.52979 9.126949 13.35042 1.000284
-469.2021 103.1805 3049.265 -2.883605 -8.204308 -29.88828 0.1160142 11.40354 1.678184 -0 49.78115 -0 -4.85437 7.120852 -1.676157 -5.159917 -9.854596 -9.104874 -0 19.91044 -0 -0.5809351 -9.157853 19.37461 0.4570382 0.6779746 7.420271 0.9003886 13.34187 -6.633157 1.616019 20.86866 -0.5490428 -4.446227 -21.45697 5.70387 -5.897949 -31.54908 12.43757 94.74563 30.08381 -10.33466 -0 0 23.98446 -13.38692 7.918837 11.1029 -3.136937 -15.90444 -5.585538 -85.33057 11.10652 36.46084 0 0 -18.40049 9.34583 12.93602 0.8951299
-471.3828 104.5368 3054.894 -3.20639 -8.572298 -28.97133 0.2977085 5.340807 1.225609 -0 53.64996 -0 -5.503457 9.25709 -2.161154 -5.48458 -5.065923 -9.435228 -0 19.07728 -0 -0.2153753 -10.59982 18.91168 0.4233112 0.9720098 7.117136 1.074842 13.21325 -6.769962 1.634296 21.20746 -0.2273848 -4.318296 -21.85413 6.034343 -5.930509 -30.80254 12.57995 95.91189 30.83998 -11.89503 -0 0 22.03041 -12.49342 6.892016 10.28031 -3.197294 -16.04539 -5.912002 -84.54031 11.42512 34.7788 0 0 -20.41594 9.909937 12.56993 0.2445716
-473.4088 105.6331 3060.08 -3.499839 -8.60693 -27.9982 0.5252822 -1.398628 0.619525 -0 52.94054 -0 -6.317575 9.403722 -2.597581 -5.436623 -0.3114506 -9.547912 -0 17.1224 -0 -0.006280175 -12.35156 18.32857 0.3661981 1.339845 6.722238 1.329176 13.00083 -6.986574 1.663441 21.62523 0.1192546 -4.209412 -22.40981 6.438755 -6.050632 -29.99255 12.71902 97.29124 31.66685 -13.66549 -0 0 19.82296 -11.40743 5.528821 9.199232 -3.239827 -16.15089 -6.203758 -83.54034 11.68186 32.6803 0 0 -22.49457 10.81126 12.27492 -0.9712817
-475.3588 106.1988 3064.943 -3.58106 -8.367101 -27.0951 0.5801252 -8.01037 -0.2000227 -0 47.7154 -0 -7.100865 8.058957 -2.938393 -5.305569 4.056098 -9.563407 -0 14.80666 -0 0.1078759 -14.4039 17.68898 0.2834511 1.767098 6.254844 1.652337 12.66832 -7.268952 1.691437 22.10247 0.5002179 -4.110532 -23.11915 6.907459 -6.279161 -29.15346 12.84164 98.81137 32.51632 -15.55123 -0 0 17.48015 -10.21785 3.82441 7.926 -3.231511 -16.19704 -6.40899 -82.38178 11.83213 30.2368 0 0 -24.55018 12.01834 12.0447 -2.741997
-477.3291 106.1075 3069.661 -3.318004 -7.880927 -26.32558 0.4016329 -13.89932 -1.246817 -0 39.10247 -0 -7.575708 6.061864 -3.165692 -5.291809 7.791882 -9.473621 -0 12.79046 -0 0.211411 -16.61964 16.99966 0.1748966 2.232546 5.744902 2.020591 12.18629 -7.592282 1.702442 22.61358 0.9314203 -4.0002 -23.95987 7.424466 -6.624671 -28.31159 12.93522 100.3756 33.33516 -17.44934 -0 0 15.13369 -9.048839 1.813237 6.548016 -3.130883 -16.16766 -6.477164 -81.14864 11.85421 27.55097 0 0 -26.48801 13.45754 11.84693 -4.991116
-479.4052 105.3877 3074.429 -2.714927 -7.16067 -25.69796 0.1110554 -18.72083 -2.410231 -0 28.84526 -0 -7.556586 4.245024 -3.288093 -5.443168 10.81309 -9.200914 -0 11.52523 -0 0.3379168 -18.69953 16.23081 0.04633168 2.700006 5.232071 2.398745 11.55618 -7.924105 1.681577 23.12188 1.423431 -3.850654 -24.87806 7.961888 -7.069794 -27.4881 12.99209 101.8674 34.06331 -19.25455 -0 0 12.92148 -8.042779 -0.3860942 5.174704 -2.903609 -16.07311 -6.381632 -79.9516 11.75619 24.76889 0 0 -28.22783 14.99809 11.64049 -7.537721
-481.6534 104.194 3079.42 -1.934536 -6.268735 -25.19074 -0.04349377 -22.30261 -3.455427 -0 18.86289 -0 -7.085314 3.168841 -3.350729 -5.667392 13.17787 -8.703963 -0 11.36755 -0 0.4341459 -20.23005 15.36367 -0.08764318 3.116005 4.759972 2.747392 10.83227 -8.231603 1.622978 23.57997 1.965361 -3.642067 -25.78286 8.477963 -7.563303 -26.70477 13.0145 103.1712 34.64166 -20.87196 -0 0 10.96635 -7.31686 -2.552053 3.927103 -2.546309 -15.96394 -6.144849 -78.90239 11.57303 22.07698 0 0 -29.74246 16.46014 11.40429 -10.08828
-484.1282 102.7659 3084.753 -1.246881 -5.355219 -24.77488 0.2036456 -24.565 -4.10392 -0 10.88385 -0 -6.441092 2.984081 -3.432581 -5.794819 15.00666 -8.038776 -0 12.72009 -0 0.389072 -20.79433 14.4323 -0.2054237 3.420909 4.367313 3.033349 10.12211 -8.489487 1.536539 23.93928 2.514236 -3.378852 -26.56188 8.922609 -8.027727 -25.99178 13.01531 104.2011 35.02717 -22.22834 -0 0 9.355389 -6.915435 -4.400539 2.917359 -2.103263 -15.9207 -5.8444 -78.08135 11.35393 19.6799 0 0 -31.06841 17.65672 11.15779 -12.29054
